<?xml version="1.0" encoding="UTF-8"?>
<svg width="65px" height="58px" viewBox="0 0 65 58" version="1.1" xmlns="http://www.w3.org/2000/svg" xmlns:xlink="http://www.w3.org/1999/xlink">
    <!-- Generator: Sketch 41.2 (35397) - http://www.bohemiancoding.com/sketch -->
    <title>Group Copy</title>
    <desc>Created with Sketch.</desc>
    <defs></defs>
    <g id="Page-1" stroke="none" stroke-width="1" fill="none" fill-rule="evenodd">
        <g id="iPhone-7" transform="translate(-155.000000, -557.000000)" fill="#FFFFFF">
            <g id="Group-Copy" transform="translate(187.500000, 586.000000) rotate(-360.000000) translate(-187.500000, -586.000000) translate(155.000000, 557.000000)">
                <path d="M57.8866023,36.807048 C58.7095241,34.1848008 59.18404,31.4111882 59.18404,28.5267164 C59.18404,13.1300751 46.7226532,0.596586548 31.3350848,0.398319082 L31.3350848,9.43334619 C41.7295486,9.63161366 50.1297631,18.1123446 50.1297631,28.5267164 C50.1297631,29.9721502 49.9416667,31.3664181 49.6338725,32.718048 L41.1631219,28.5267164 L47.0625092,46.006232 L64.5832618,40.1179015 L57.8866023,36.807048 Z" id="Shape"></path>
                <path d="M14.8702369,29.4732836 C14.8702369,28.0278498 15.0583333,26.6335819 15.3661275,25.2798201 L23.8368781,29.4732836 L17.9374908,11.993768 L0.416738154,17.8820985 L7.11339767,21.192952 C6.29261336,23.8151992 5.81595997,26.5888118 5.81595997,29.4754155 C5.81595997,44.8741887 18.2773468,57.4034135 33.6670527,57.6038128 L33.6670527,48.5687857 C23.2704514,48.3705182 14.8702369,39.8876554 14.8702369,29.4732836 Z" id="Shape"></path>
            </g>
        </g>
    </g>
</svg>