<?xml version="1.0" encoding="UTF-8"?>
<svg width="24px" height="21px" viewBox="0 0 24 21" version="1.1" xmlns="http://www.w3.org/2000/svg" xmlns:xlink="http://www.w3.org/1999/xlink">
    <!-- Generator: Sketch 41.2 (35397) - http://www.bohemiancoding.com/sketch -->
    <title>Shape</title>
    <desc>Created with Sketch.</desc>
    <defs></defs>
    <g id="Page-1" stroke="none" stroke-width="1" fill="none" fill-rule="evenodd">
        <g id="iPhone-7" transform="translate(-43.000000, -570.000000)" fill="#FFFFFF">
            <path d="M67.0781077,572.396126 C66.2059081,572.797554 65.2688862,573.068917 64.2851825,573.190993 C65.2889618,572.566134 66.0600578,571.576794 66.4235952,570.397724 C65.4839127,570.976399 64.4433684,571.396301 63.3353412,571.622978 C62.4483873,570.641626 61.1843511,570.0285 59.7855907,570.0285 C57.0998159,570.0285 54.9222195,572.288779 54.9222195,575.077056 C54.9222195,575.472742 54.9650313,575.857943 55.0479943,576.227666 C51.0062709,576.016717 47.4228998,574.007081 45.0242301,570.952433 C44.6057872,571.69837 44.3658477,572.565635 44.3658477,573.490816 C44.3658477,575.24257 45.2245022,576.788118 46.5294153,577.693328 C45.7321969,577.667365 44.982144,577.440188 44.3269059,577.061977 C44.3264221,577.083197 44.3264221,577.104417 44.3264221,577.125637 C44.3264221,579.571901 46.0028545,581.612243 48.2276164,582.076332 C47.8193322,582.191917 47.3900049,582.253579 46.946407,582.253579 C46.6329376,582.253579 46.3284176,582.221874 46.0313957,582.162958 C46.6503526,584.1686 48.4462709,585.62852 50.574283,585.669212 C48.9099444,587.023282 46.8128923,587.830382 44.5344342,587.830382 C44.1418719,587.830382 43.7548726,587.806416 43.374404,587.759983 C45.5266035,589.192441 48.0829754,590.0285 50.8289769,590.0285 C59.7739807,590.0285 64.6656511,582.335213 64.6656511,575.663221 C64.6656511,575.444283 64.6608136,575.226842 64.6513805,575.009902 C65.6014637,574.297666 66.426014,573.408184 67.0781077,572.396126 Z" id="Shape"></path>
        </g>
    </g>
</svg>