<?xml version="1.0" encoding="UTF-8"?>
<svg width="29px" height="20px" viewBox="0 0 29 20" version="1.1" xmlns="http://www.w3.org/2000/svg" xmlns:xlink="http://www.w3.org/1999/xlink">
    <!-- Generator: Sketch 41.2 (35397) - http://www.bohemiancoding.com/sketch -->
    <title>Wikipedia</title>
    <desc>Created with Sketch.</desc>
    <defs></defs>
    <g id="Page-1" stroke="none" stroke-width="1" fill="none" fill-rule="evenodd">
        <g id="iPhone-7" transform="translate(-292.000000, -570.000000)" fill="#FFFFFF">
            <path d="M321,570 L315,570 L314.580645,570.063908 L314.580645,570.639076 C314.580645,570.702983 314.774194,570.766891 314.83871,570.798845 C314.903226,570.830799 315.032258,570.862752 315.096774,570.862752 L315.645161,570.894706 C316.258065,570.92666 316.451613,571.054475 316.677419,571.278152 C316.903226,571.501828 316.967742,571.917227 316.774194,572.460442 L311.483871,586.168617 L311.290323,586.10471 L307.903226,578.627523 C307.967742,578.499708 307.967742,578.4358 307.967742,578.4358 L310.741935,572.811933 C311.064516,572.204811 311.387097,571.693551 311.516129,571.437921 C311.806452,570.990567 311.935484,570.894706 312.741935,570.862752 C312.903226,570.862752 312.967742,570.798845 312.967742,570.639076 L312.967742,570.063908 L312.935484,570 L308.129032,570 L308.129032,570.063908 L308.129032,570.639076 C308.129032,570.702983 308.096774,570.766891 308.129032,570.798845 C308.193548,570.830799 308.225806,570.862752 308.258065,570.862752 L308.483871,570.894706 C309.096774,570.92666 309.387097,571.086429 309.451613,571.214244 C309.612903,571.405967 309.677419,571.629643 309.322581,572.460442 L307.193548,577.061787 L305.258065,572.77998 C304.612903,571.405967 304.483871,570.990567 305.419355,570.92666 L305.677419,570.862752 C305.870968,570.862752 305.83871,570.798845 305.83871,570.67103 L305.83871,570.063908 L305.806452,570 L300.677419,570 L300.709677,570.095861 L300.709677,570.702983 C300.709677,570.830799 300.83871,570.862752 301.096774,570.894706 C302,571.022521 301.967742,571.118383 302.83871,573.003656 C302.967742,573.29124 303.354839,574.153993 303.354839,574.153993 L305.354839,578.4358 C305.354839,578.4358 305.580645,578.979015 305.935484,579.841767 L303.032258,586.168617 L302.870968,586.136663 C302.870968,586.136663 298.354839,575.783636 297.064516,572.300673 C296.935484,571.949181 296.870968,571.661597 296.870968,571.501828 C296.870968,571.150336 297.16129,570.958614 297.741935,570.92666 L298.645161,570.894706 C298.83871,570.894706 299.129032,570.830799 299.129032,570.67103 L299.129032,570.095861 L298.870968,570.031954 L292.225806,570.031954 L292,570.095861 L292,570.702983 C292,570.798845 292.129032,570.862752 292.387097,570.894706 C293.064516,570.92666 293.548387,571.054475 293.741935,571.246198 C293.967742,571.437921 294.193548,571.949181 294.483871,572.748026 C296.129032,577.029834 299.612903,584.698743 301.322581,589.044458 C301.806452,590.226748 302.419355,590.418471 303.16129,589.012504 C303.935484,587.478723 305.483871,584.027713 306.612903,581.47141 C307.677419,583.99576 309.096774,587.414815 309.806452,588.980551 C310.354839,590.226748 311,590.354564 311.612903,589.012504 C313.290323,584.954373 318.16129,572.811933 318.16129,572.811933 C318.387097,572.204811 318.677419,571.757458 319.032258,571.405967 C319.419355,571.086429 319.967742,570.894706 320.741935,570.862752 C320.903226,570.862752 320.967742,570.798845 320.967742,570.639076 L320.967742,570.063908 L321,570 Z" id="Wikipedia"></path>
        </g>
    </g>
</svg>